<svg width="1080" height="1080" viewBox="0 0 1080 1080">
    <g>
        <polygon points="691.8 604.66 591.08 335.96 485.09 335.96 633.87 734 656.09 734 691.8 604.66"/>
        <polygon points="310.24 335.96 459.02 734 481.24 734 517.12 604 416.22 335.96 310.24 335.96"/>
        <path d="M724.21,424.55c-12.11,0-22.75-4.5-31.62-13.38s-13.38-19.5-13.38-31.62,4.5-22.83,13.36-31.88S712.09,334,724.21,334a43.62,43.62,0,0,1,32.19,13.67c8.86,9.05,13.36,19.78,13.36,31.88s-4.5,22.75-13.38,31.62A44,44,0,0,1,724.21,424.55Z"/>
    </g>
</svg>

