<svg width="1080" height="1080" viewBox="0 0 1080 1080">
    <g>
        <title>background</title>
        <rect fill="none" id="canvas_background" height="602" width="802" y="-1" x="-1"/>
    </g>
    <g>
        <title>Layer 1</title>
        <g stroke="null" id="svg_1">
            <polygon stroke="null" id="svg_2" points="892.0068969726562,705.0736694335938 659.7757568359375,85.52945709228516 415.3934020996094,85.52945709228516 758.4371337890625,1003.2942504882812 809.6701049804688,1003.2942504882812 892.0068969726562,705.0736694335938 "/>
            <polygon stroke="null" id="svg_3" points="12.240060806274414,85.52945709228516 355.2835388183594,1003.2942504882812 406.5164794921875,1003.2942504882812 489.24530029296875,703.5518188476562 256.59930419921875,85.52945709228516 12.240060806274414,85.52945709228516 "/>
            <path stroke="null" id="svg_4" d="m966.73491,289.79227c-27.92215,0 -52.4549,-10.3757 -72.90655,-30.8504s-30.8504,-44.96135 -30.8504,-72.90655s10.3757,-52.63936 30.80429,-73.50604s45.00746,-31.51906 72.95267,-31.51906a100.57507,100.57507 0 0 1 74.22081,31.51906c20.42859,20.86668 30.80429,45.60695 30.80429,73.50604s-10.3757,52.4549 -30.8504,72.90655a101.45124,101.45124 0 0 1 -74.17469,30.8504z"/>
        </g>
    </g>
</svg>

